#define f26d4ab8c9dd49619b3c2f8dc0b3c36bSkjSdSaEOrxSM5M9_width 16
#define f26d4ab8c9dd49619b3c2f8dc0b3c36bSkjSdSaEOrxSM5M9_height 16
static char f26d4ab8c9dd49619b3c2f8dc0b3c36bSkjSdSaEOrxSM5M9_bits[] = {
  0x00, 0x00, 0x00, 0x00, 0x20, 0x00, 0x50, 0x00, 0x70, 0x00, 0x50, 0x00, 
  0x90, 0x01, 0x10, 0x06, 0x16, 0x08, 0x09, 0x10, 0x05, 0x10, 0x06, 0x10, 
  0x08, 0x08, 0x10, 0x08, 0x20, 0x04, 0xE0, 0x07, };
